# xmcd CD database file
#
# Track frame offsets:
#	150
#	18875
#	41375
#	59950
#
# Disc length: 1037 seconds
#
# Revision: 0
# Processed by: cddbd v1.5.1PL2 Copyright (c) Steve Scherf et al.
# Submitted via: CDex 1.51
#
DISCID=2e040b04
DTITLE=Freebo - 月明かりを撃て!
DYEAR=1998
DGENRE=Rock
TTITLE0=月明かりを撃て!
TTITLE1=君想う
TTITLE2=Daydream
TTITLE3=僕の車
EXTD=YEAR: 1998
EXTT0=
EXTT1=
EXTT2=
EXTT3=
PLAYORDER=
